<svg width="676" height="538" viewBox="0 0 676 538" fill="none" xmlns="http://www.w3.org/2000/svg">
<g opacity="0.9">
<path d="M591.842 450.197L71.8425 435.298C47.6425 434.598 27.7425 416.098 25.3425 391.998L0.24249 143.999C-2.55751 115.899 19.2425 91.3995 47.4425 90.9995L626.242 82.9995C655.442 82.5995 678.342 108.099 674.742 137.099L641.042 407.998C637.942 432.698 616.642 450.997 591.842 450.197Z" fill="#212529"/>
<mask id="mask0_318_441" style="mask-type:alpha" maskUnits="userSpaceOnUse" x="0" y="82" width="676" height="369">
<path d="M591.843 450.197L71.8427 435.298C47.6427 434.598 27.7427 416.098 25.3427 391.998L0.242703 143.999C-2.5573 115.899 19.2427 91.3995 47.4427 90.9995L626.243 82.9995C655.443 82.5995 678.343 108.099 674.743 137.099L641.043 407.998C637.943 432.698 616.643 450.997 591.843 450.197Z" fill="#EAF9F3"/>
</mask>
<g mask="url(#mask0_318_441)">
<path d="M516.943 517.497H932.443C940.743 517.497 947.443 510.797 947.443 502.497V266.899C947.443 258.599 940.743 251.899 932.443 251.899H516.943C508.643 251.899 501.943 258.599 501.943 266.899V502.497C501.943 510.797 508.743 517.497 516.943 517.497Z" stroke="#B8D8C7" stroke-width="1.8" stroke-miterlimit="10" stroke-linecap="round" stroke-linejoin="round"/>
<path d="M-32.1575 501.697H386.943C395.243 501.697 401.943 494.997 401.943 486.697V142.399C401.943 134.099 395.243 127.399 386.943 127.399H-32.1575C-40.4575 127.399 -47.1575 134.099 -47.1575 142.399V486.697C-47.1575 494.997 -40.3575 501.697 -32.1575 501.697Z" stroke="#B8D8C7" stroke-width="1.8" stroke-miterlimit="10" stroke-linecap="round" stroke-linejoin="round"/>
<path d="M539.543 251.799H559.843C562.043 251.799 563.842 250.199 564.142 247.999L565.743 233.599C566.043 231.099 564.043 228.799 561.443 228.799H537.943C535.343 228.799 533.442 230.999 533.642 233.599L535.243 247.999C535.543 250.199 537.343 251.799 539.543 251.799Z" stroke="#B8D8C7" stroke-width="1.8" stroke-miterlimit="10" stroke-linecap="round" stroke-linejoin="round"/>
<path d="M552.043 228.899C552.043 228.899 560.043 228.099 561.643 217.299C561.643 217.299 554.443 219.399 552.143 224.499C552.143 224.499 551.143 213.099 545.743 211.999C545.743 211.999 543.343 220.499 547.143 224.699C547.143 224.699 544.243 219.899 536.843 219.999C536.843 219.999 538.743 226.799 546.043 228.799" fill="#B8D8C7"/>
<path d="M53.8426 232.099H74.1426C76.3426 232.099 78.1425 230.499 78.4425 228.299L80.0425 213.899C80.3425 211.399 78.3425 209.099 75.7425 209.099H52.2425C49.6425 209.099 47.7425 211.299 47.9425 213.899L49.5425 228.299C49.7425 230.399 51.6426 232.099 53.8426 232.099Z" stroke="#B8D8C7" stroke-width="1.8" stroke-miterlimit="10" stroke-linecap="round" stroke-linejoin="round"/>
<path d="M66.3425 209.099C66.3425 209.099 74.3425 208.299 75.9425 197.499C75.9425 197.499 68.7425 199.599 66.4425 204.699C66.4425 204.699 65.4425 193.299 60.0425 192.199C60.0425 192.199 57.6425 200.699 61.4425 204.899C61.4425 204.899 58.5425 200.099 51.1425 200.199C51.1425 200.199 53.0425 206.999 60.3425 208.999" fill="#B8D8C7"/>
<path d="M520.143 301.598H610.343C612.643 301.598 614.543 299.698 614.543 297.398V269.898C614.543 267.598 612.643 265.698 610.343 265.698H520.143C517.843 265.698 515.943 267.598 515.943 269.898V297.298C515.943 299.698 517.843 301.598 520.143 301.598Z" stroke="#B8D8C7" stroke-width="1.8" stroke-miterlimit="10" stroke-linecap="round" stroke-linejoin="round"/>
<path d="M554.843 275.499H575.643C576.443 275.499 577.143 274.799 577.143 273.999C577.143 273.199 576.443 272.499 575.643 272.499H554.843C554.043 272.499 553.343 273.199 553.343 273.999C553.343 274.799 554.043 275.499 554.843 275.499Z" fill="#B8D8C7"/>
<path d="M520.143 347.398H610.343C612.643 347.398 614.543 345.498 614.543 343.198V315.798C614.543 313.498 612.643 311.598 610.343 311.598H520.143C517.843 311.598 515.943 313.498 515.943 315.798V343.198C515.943 345.498 517.843 347.398 520.143 347.398Z" stroke="#B8D8C7" stroke-width="1.8" stroke-miterlimit="10" stroke-linecap="round" stroke-linejoin="round"/>
<path d="M554.843 321.298H575.643C576.443 321.298 577.143 320.598 577.143 319.798C577.143 318.998 576.443 318.298 575.643 318.298H554.843C554.043 318.298 553.343 318.998 553.343 319.798C553.343 320.598 554.043 321.298 554.843 321.298Z" fill="#B8D8C7"/>
<path d="M56.9425 379.798H147.143C149.443 379.798 151.343 377.898 151.343 375.598V348.198C151.343 345.898 149.443 343.998 147.143 343.998H56.9425C54.6425 343.998 52.7425 345.898 52.7425 348.198V375.598C52.7425 377.898 54.6425 379.798 56.9425 379.798Z" stroke="#B8D8C7" stroke-width="1.8" stroke-miterlimit="10" stroke-linecap="round" stroke-linejoin="round"/>
<path d="M91.7426 353.598H112.543C113.343 353.598 114.043 352.898 114.043 352.098C114.043 351.298 113.343 350.598 112.543 350.598H91.7426C90.9426 350.598 90.2426 351.298 90.2426 352.098C90.2426 352.998 90.8426 353.598 91.7426 353.598Z" fill="#B8D8C7"/>
<path d="M172.743 379.798H262.943C265.243 379.798 267.143 377.898 267.143 375.598V348.198C267.143 345.898 265.243 343.998 262.943 343.998H172.743C170.443 343.998 168.543 345.898 168.543 348.198V375.598C168.543 377.898 170.443 379.798 172.743 379.798Z" stroke="#B8D8C7" stroke-width="1.8" stroke-miterlimit="10" stroke-linecap="round" stroke-linejoin="round"/>
<path d="M207.543 353.598H228.343C229.143 353.598 229.843 352.898 229.843 352.098C229.843 351.298 229.143 350.598 228.343 350.598H207.543C206.743 350.598 206.043 351.298 206.043 352.098C206.043 352.998 206.643 353.598 207.543 353.598Z" fill="#B8D8C7"/>
<path d="M635.143 301.598H725.343C727.643 301.598 729.543 299.698 729.543 297.398V269.898C729.543 267.598 727.643 265.698 725.343 265.698H635.143C632.843 265.698 630.943 267.598 630.943 269.898V297.298C630.943 299.698 632.843 301.598 635.143 301.598Z" stroke="#B8D8C7" stroke-width="1.8" stroke-miterlimit="10" stroke-linecap="round" stroke-linejoin="round"/>
<path d="M669.843 275.499H690.643C691.443 275.499 692.143 274.799 692.143 273.999C692.143 273.199 691.443 272.499 690.643 272.499H669.843C669.043 272.499 668.343 273.199 668.343 273.999C668.343 274.799 669.043 275.499 669.843 275.499Z" fill="#B8D8C7"/>
<path d="M635.143 347.398H725.343C727.643 347.398 729.543 345.498 729.543 343.198V315.798C729.543 313.498 727.643 311.598 725.343 311.598H635.143C632.843 311.598 630.943 313.498 630.943 315.798V343.198C630.943 345.498 632.843 347.398 635.143 347.398Z" stroke="#B8D8C7" stroke-width="1.8" stroke-miterlimit="10" stroke-linecap="round" stroke-linejoin="round"/>
<path d="M669.843 321.298H690.643C691.443 321.298 692.143 320.598 692.143 319.798C692.143 318.998 691.443 318.298 690.643 318.298H669.843C669.043 318.298 668.343 318.998 668.343 319.798C668.343 320.598 669.043 321.298 669.843 321.298Z" fill="#B8D8C7"/>
<path d="M-74.3575 232.199H380.643C383.143 232.199 385.243 230.099 385.243 227.599V147.899C385.243 145.399 383.143 143.299 380.643 143.299H-74.3575C-76.8575 143.299 -78.9575 145.399 -78.9575 147.899V227.599C-78.9575 230.199 -76.8575 232.199 -74.3575 232.199Z" stroke="#B8D8C7" stroke-width="1.8" stroke-miterlimit="10" stroke-linecap="round" stroke-linejoin="round"/>
<path d="M-74.3575 331.198H380.643C383.143 331.198 385.243 329.098 385.243 326.598V246.899C385.243 244.399 383.143 242.299 380.643 242.299H-74.3575C-76.8575 242.299 -78.9575 244.399 -78.9575 246.899V326.598C-78.9575 329.098 -76.8575 331.198 -74.3575 331.198Z" stroke="#B8D8C7" stroke-width="1.8" stroke-miterlimit="10" stroke-linecap="round" stroke-linejoin="round"/>
<path d="M344.774 232.287L354.674 232.287L354.674 181.987L344.774 181.987L344.774 232.287Z" stroke="#B8D8C7" stroke-width="1.8" stroke-miterlimit="10" stroke-linecap="round" stroke-linejoin="round"/>
<path d="M334.431 232.201L344.731 232.201L344.731 195.601L334.431 195.601L334.431 232.201Z" stroke="#B8D8C7" stroke-width="1.8" stroke-miterlimit="10" stroke-linecap="round" stroke-linejoin="round"/>
<path d="M46.3962 331.027L56.2962 331.027L56.2962 280.727L46.3962 280.727L46.3962 331.027Z" stroke="#B8D8C7" stroke-width="1.8" stroke-miterlimit="10" stroke-linecap="round" stroke-linejoin="round"/>
<path d="M36.0534 331.041L46.3534 331.041L46.3534 294.441L36.0534 294.441L36.0534 331.041Z" stroke="#B8D8C7" stroke-width="1.8" stroke-miterlimit="10" stroke-linecap="round" stroke-linejoin="round"/>
<path d="M66.482 331.027L76.382 331.027L76.382 280.727L66.482 280.727L66.482 331.027Z" stroke="#B8D8C7" stroke-width="1.8" stroke-miterlimit="10" stroke-linecap="round" stroke-linejoin="round"/>
<path d="M91.3845 330.617L100.825 327.636L85.6798 279.67L76.2392 282.651L91.3845 330.617Z" stroke="#B8D8C7" stroke-width="1.8" stroke-miterlimit="10" stroke-linecap="round" stroke-linejoin="round"/>
<path d="M56.2391 331.041L66.5391 331.041L66.5391 294.441L56.2391 294.441L56.2391 331.041Z" stroke="#B8D8C7" stroke-width="1.8" stroke-miterlimit="10" stroke-linecap="round" stroke-linejoin="round"/>
<path d="M265.443 188.499L264.343 173.599C264.243 172.599 265.043 171.799 266.043 171.799H270.343H274.643C275.643 171.799 276.343 172.599 276.343 173.599L275.243 188.499C275.243 188.499 284.243 194.299 284.143 199.099C284.043 202.799 281.843 220.499 280.843 228.299C280.543 230.499 278.743 232.099 276.543 232.099H270.343H264.143C261.943 232.099 260.143 230.499 259.843 228.299C258.843 220.499 256.643 202.799 256.543 199.099C256.443 194.299 265.443 188.499 265.443 188.499Z" fill="#B8D8C7"/>
<path d="M221.243 188.499L220.143 173.599C220.043 172.599 220.843 171.799 221.843 171.799H226.143H230.443C231.443 171.799 232.143 172.599 232.143 173.599L231.043 188.499C231.043 188.499 240.043 194.299 239.943 199.099C239.843 202.799 237.643 220.499 236.643 228.299C236.343 230.499 234.543 232.099 232.343 232.099H226.143H219.943C217.743 232.099 215.943 230.499 215.643 228.299C214.643 220.499 212.443 202.799 212.343 199.099C212.243 194.299 221.243 188.499 221.243 188.499Z" fill="#B8D8C7"/>
<path d="M662.743 425.598H-270.157" stroke="#B8D8C7" stroke-width="1.8" stroke-miterlimit="10" stroke-linecap="round" stroke-linejoin="round"/>
<path d="M249.443 331.198H166.243C163.543 331.198 161.342 328.998 161.342 326.298V313.198C161.342 310.498 163.543 308.298 166.243 308.298H249.443C252.143 308.298 254.342 310.498 254.342 313.198V326.298C254.342 328.998 252.143 331.198 249.443 331.198Z" stroke="#B8D8C7" stroke-width="1.8" stroke-miterlimit="10" stroke-linecap="round" stroke-linejoin="round"/>
<path d="M237.743 287.198H177.743V308.198H237.743V287.198Z" stroke="#B8D8C7" stroke-width="1.8" stroke-miterlimit="10" stroke-linecap="round" stroke-linejoin="round"/>
<path d="M170.743 317.398C171.571 317.398 172.243 316.727 172.243 315.898C172.243 315.07 171.571 314.398 170.743 314.398C169.914 314.398 169.243 315.07 169.243 315.898C169.243 316.727 169.914 317.398 170.743 317.398Z" fill="#B8D8C7"/>
</g>
<path d="M259.842 308.698L302.043 292.998C303.643 292.398 304.743 290.798 304.743 289.098L220.943 283.098L233.842 306.298L255.643 309.198C257.043 309.398 258.542 309.198 259.842 308.698Z" fill="#63737A"/>
<path d="M153.643 293.398L146.043 234.099C145.843 232.399 147.243 230.999 148.843 231.099L250.243 238.299C251.743 238.399 252.943 239.599 253.043 241.099L259.043 306.398C259.243 308.098 257.743 309.498 256.043 309.298L156.243 296.098C154.843 295.798 153.743 294.698 153.643 293.398Z" fill="#E9ECEF"/>
<path d="M304.743 289.198C304.743 290.998 303.643 292.498 302.043 293.098L259.842 308.798C258.842 309.198 257.643 309.398 256.543 309.298C254.943 308.098 253.943 306.198 253.943 306.198L304.743 289.198Z" fill="#E9ECEF"/>
<path d="M202.087 273.713C204.753 271.745 205.052 267.628 202.756 264.518C200.459 261.409 196.437 260.483 193.771 262.452C191.106 264.42 190.806 268.536 193.103 271.646C195.399 274.756 199.422 275.681 202.087 273.713Z" fill="#63737A"/>
<path d="M436.842 24.9999H406.243L403.142 26.9999C402.142 27.6999 400.842 26.8999 400.842 25.6999V3.99998C400.842 1.79999 402.642 0 404.842 0H436.943C439.143 0 440.943 1.79999 440.943 3.99998V20.8999C440.843 23.1999 439.042 24.9999 436.842 24.9999Z" fill="#F4C2C9"/>
<path d="M420.443 10H431.142" stroke="#E9ECEF" stroke-width="1.8" stroke-miterlimit="10" stroke-linecap="round" stroke-linejoin="round"/>
<path d="M420.443 15.4999H426.943" stroke="#E9ECEF" stroke-width="1.8" stroke-miterlimit="10" stroke-linecap="round" stroke-linejoin="round"/>
<path d="M414.943 10H409.443V15.5H414.943V10Z" stroke="#E9ECEF" stroke-width="1.8" stroke-miterlimit="10" stroke-linecap="round" stroke-linejoin="round"/>
<path d="M254.042 186.899L85.0425 212.499C81.2425 213.099 77.8425 210.299 77.5425 206.499L67.4425 54.2996C67.1425 50.0996 70.6425 46.5997 74.8425 46.8997L244.143 57.6996C247.343 57.8996 249.943 60.3996 250.243 63.5996L259.942 179.499C260.242 182.999 257.642 186.299 254.042 186.899Z" fill="#63737A"/>
<path d="M258.643 186.699L88.8425 212.399C85.0425 212.999 81.6425 210.199 81.3425 206.399L71.1425 53.4996C70.8425 49.2997 74.3425 45.6997 78.6425 45.9997L248.643 56.7996C251.843 56.9996 254.443 59.4996 254.743 62.7996L264.542 179.199C264.942 182.899 262.343 186.199 258.643 186.699Z" fill="#E9ECEF"/>
<path d="M147.942 134.299L100.142 136.899C98.6425 136.999 97.3425 135.799 97.2425 134.299L94.4425 93.8994C94.3425 92.2994 95.6425 90.8994 97.2425 90.8994L145.042 91.1994C146.542 91.1994 147.742 92.2994 147.842 93.7994L150.642 131.299C150.742 132.899 149.542 134.199 147.942 134.299Z" fill="#6DAFA7"/>
<path d="M199.343 118.699L159.343 120.099C157.843 120.199 156.543 118.999 156.443 117.499L154.743 94.1994C154.643 92.5995 155.943 91.1995 157.543 91.1995L197.543 91.4995C198.943 91.4995 200.143 92.5994 200.343 94.0994L202.043 115.699C202.143 117.299 200.943 118.699 199.343 118.699Z" fill="#FFE779"/>
<path d="M244.643 117.199L210.943 118.399C209.443 118.499 208.143 117.299 208.043 115.799L206.343 94.6994C206.243 93.0995 207.543 91.6995 209.143 91.6995L242.843 91.8995C244.243 91.8995 245.443 92.9995 245.643 94.4995L247.243 114.199C247.443 115.699 246.243 117.099 244.643 117.199Z" fill="#F4C2C9"/>
<path d="M150.943 173.499L103.143 178.699C101.543 178.899 100.143 177.699 100.043 176.099L98.2425 149.999C98.1425 148.499 99.3425 147.099 100.842 146.999L148.743 143.799C150.243 143.699 151.643 144.799 151.743 146.399L153.543 170.499C153.543 171.999 152.443 173.299 150.943 173.499Z" stroke="#63737A" stroke-width="1.8" stroke-miterlimit="10" stroke-linecap="round" stroke-linejoin="round"/>
<path d="M203.842 172.499L163.942 177.199C162.342 177.399 160.942 176.199 160.842 174.599L157.642 131.499C157.542 129.899 158.742 128.599 160.242 128.499L200.242 126.599C201.742 126.499 203.042 127.699 203.142 129.199L206.342 169.499C206.442 170.999 205.342 172.299 203.842 172.499Z" fill="#F4C2C9"/>
<path d="M195.542 134.099L166.842 135.799C166.142 135.799 165.642 136.399 165.742 137.099L167.042 154.899C167.142 155.599 167.642 156.099 168.342 155.999L197.042 153.499C197.742 153.399 198.242 152.899 198.142 152.199L196.842 135.199C196.742 134.599 196.142 134.099 195.542 134.099Z" fill="#6DAFA7"/>
<path d="M248.642 162.599L214.942 166.299C213.342 166.499 211.942 165.299 211.842 163.699L209.142 128.999C209.042 127.399 210.242 126.099 211.742 125.999L245.442 124.399C246.942 124.299 248.242 125.499 248.342 126.999L251.042 159.599C251.242 161.099 250.142 162.399 248.642 162.599Z" fill="#FFE779"/>
<path d="M126.542 156.999L127.142 164.399" stroke="#63737A" stroke-width="1.8" stroke-miterlimit="10" stroke-linecap="round" stroke-linejoin="round"/>
<path d="M123.342 160.999L130.342 160.399" stroke="#63737A" stroke-width="1.8" stroke-miterlimit="10" stroke-linecap="round" stroke-linejoin="round"/>
<path d="M174.443 165.199C174.243 163.199 172.743 161.599 170.943 161.799C169.143 161.999 167.743 163.799 167.943 165.899C168.143 167.999 169.743 169.499 171.543 169.299C173.243 168.999 174.543 167.199 174.443 165.199Z" fill="#E9ECEF"/>
<path d="M180.243 164.599L198.943 162.699" stroke="#E9ECEF" stroke-width="1.8" stroke-miterlimit="10" stroke-linecap="round" stroke-linejoin="round"/>
<path d="M221.843 135.399C221.643 133.499 220.343 132.099 218.743 132.099C217.143 132.199 216.043 133.799 216.143 135.699C216.343 137.599 217.643 139.099 219.243 138.999C220.943 138.899 222.043 137.299 221.843 135.399Z" fill="#6DAFA7"/>
<path d="M226.943 135.099L243.043 134.099" stroke="#E9ECEF" stroke-width="1.8" stroke-miterlimit="10" stroke-linecap="round" stroke-linejoin="round"/>
<path d="M222.743 146.099C222.543 144.199 221.243 142.799 219.643 142.899C218.043 142.999 216.942 144.699 217.042 146.599C217.242 148.499 218.643 149.999 220.143 149.799C221.743 149.599 222.943 147.999 222.743 146.099Z" fill="#6DAFA7"/>
<path d="M227.742 145.699L243.942 144.399" stroke="#E9ECEF" stroke-width="1.8" stroke-miterlimit="10" stroke-linecap="round" stroke-linejoin="round"/>
<path d="M223.643 156.799C223.443 154.899 222.143 153.499 220.543 153.599C218.943 153.699 217.843 155.399 217.943 157.299C218.143 159.199 219.543 160.599 221.043 160.499C222.643 160.299 223.743 158.699 223.643 156.799Z" fill="#6DAFA7"/>
<path d="M228.643 156.299L244.743 154.699" stroke="#E9ECEF" stroke-width="1.8" stroke-miterlimit="10" stroke-linecap="round" stroke-linejoin="round"/>
<path d="M111.143 107.099L104.643 107.199C104.043 107.199 103.543 106.699 103.443 106.099L102.943 99.2994C102.943 98.5994 103.443 98.0994 104.143 98.0994H110.643C111.243 98.0994 111.742 98.5994 111.842 99.1994L112.342 105.899C112.242 106.499 111.743 107.099 111.143 107.099Z" fill="#FFE779"/>
<path d="M118.143 98.0994L140.643 97.9994" stroke="#E9ECEF" stroke-width="1.8" stroke-miterlimit="10" stroke-linecap="round" stroke-linejoin="round"/>
<path d="M118.543 103.899L141.043 103.699" stroke="#E9ECEF" stroke-width="1.8" stroke-miterlimit="10" stroke-linecap="round" stroke-linejoin="round"/>
<path d="M219.042 105.499L213.942 105.599C213.642 105.599 213.342 105.299 213.242 104.999L212.742 98.4994C212.742 98.0994 213.042 97.7994 213.442 97.7994H218.542C218.842 97.7994 219.142 98.0994 219.242 98.3994L219.742 104.799C219.742 105.099 219.442 105.499 219.042 105.499Z" fill="#E9ECEF"/>
<path d="M223.842 97.6995H240.542" stroke="#E9ECEF" stroke-width="1.8" stroke-miterlimit="10" stroke-linecap="round" stroke-linejoin="round"/>
<path d="M224.342 102.799L240.942 102.599" stroke="#E9ECEF" stroke-width="1.8" stroke-miterlimit="10" stroke-linecap="round" stroke-linejoin="round"/>
<path d="M213.742 111.099L241.542 110.399" stroke="#E9ECEF" stroke-width="1.8" stroke-miterlimit="10" stroke-linecap="round" stroke-linejoin="round"/>
<path d="M112.242 122.599L105.742 122.799C105.142 122.799 104.542 122.299 104.542 121.699L104.042 114.899C104.042 114.199 104.542 113.699 105.142 113.699L111.642 113.499C112.242 113.499 112.742 113.999 112.842 114.599L113.342 121.299C113.342 121.999 112.842 122.599 112.242 122.599Z" fill="#FFE779"/>
<path d="M119.242 113.399L141.742 112.799" stroke="#E9ECEF" stroke-width="1.8" stroke-miterlimit="10" stroke-linecap="round" stroke-linejoin="round"/>
<path d="M119.642 119.299L142.142 118.599" stroke="#E9ECEF" stroke-width="1.8" stroke-miterlimit="10" stroke-linecap="round" stroke-linejoin="round"/>
<path d="M128.643 74.1995L94.9425 73.1995C93.8425 73.1995 92.9425 72.2995 92.8425 71.1995L92.4425 65.8996C92.3425 64.5996 93.4425 63.4996 94.6425 63.5996L128.342 64.9996C129.442 64.9996 130.342 65.8996 130.442 66.9996L130.842 71.8995C130.942 73.0995 129.943 74.1995 128.643 74.1995Z" fill="#6DAFA7"/>
<path d="M162.742 97.8994L194.542 97.7994" stroke="#E9ECEF" stroke-width="1.8" stroke-miterlimit="10" stroke-linecap="round" stroke-linejoin="round"/>
<path d="M163.143 103.499L194.943 103.099" stroke="#E9ECEF" stroke-width="1.8" stroke-miterlimit="10" stroke-linecap="round" stroke-linejoin="round"/>
<path d="M163.742 112.299L180.842 111.899" stroke="#E9ECEF" stroke-width="1.8" stroke-miterlimit="10" stroke-linecap="round" stroke-linejoin="round"/>
<path d="M243.643 73.6995C243.543 72.1995 242.443 70.8995 241.143 70.7995C239.943 70.6995 238.943 71.9995 239.143 73.4995C239.243 75.0995 240.343 76.3995 241.643 76.3995C242.843 76.4995 243.743 75.1995 243.643 73.6995Z" fill="#63737A"/>
<path d="M234.743 73.3995C234.643 71.7995 233.443 70.4995 232.243 70.4995C230.943 70.3995 230.043 71.6995 230.143 73.2995C230.243 74.8995 231.443 76.1995 232.743 76.1995C233.943 76.1995 234.843 74.8995 234.743 73.3995Z" fill="#63737A"/>
<path d="M225.542 72.9995C225.442 71.3995 224.242 70.0995 222.942 69.9995C221.642 69.8995 220.642 71.1995 220.742 72.7995C220.842 74.3995 222.042 75.6995 223.342 75.7995C224.742 75.8995 225.642 74.5995 225.542 72.9995Z" fill="#63737A"/>
<path d="M284.243 86.7996L239.842 85.9996C238.042 85.9996 236.543 84.5996 236.443 82.7996L232.443 33.8999C232.343 32.1999 233.742 30.8999 235.342 30.9999L279.943 35.6999C281.643 35.8999 282.943 37.1999 283.043 38.8999L286.943 83.7996C287.043 85.4996 285.843 86.7996 284.243 86.7996Z" fill="#F8AB5D"/>
<path d="M286.643 85.9996L242.243 85.1996C240.443 85.1996 238.942 83.7996 238.842 81.9996L234.842 33.0998C234.742 31.3998 236.143 30.0999 237.743 30.1999L282.342 34.8998C284.042 35.0998 285.343 36.3998 285.443 38.0998L289.342 82.9996C289.442 84.6996 288.143 85.9996 286.643 85.9996Z" fill="#FFE779"/>
<path d="M254.243 39.2998L277.743 41.4998" stroke="#63737A" stroke-width="1.8" stroke-miterlimit="10" stroke-linecap="round" stroke-linejoin="round"/>
<path d="M254.643 44.0997L278.143 46.0997" stroke="#63737A" stroke-width="1.8" stroke-miterlimit="10" stroke-linecap="round" stroke-linejoin="round"/>
<path d="M255.542 55.0996L279.143 56.6996" stroke="#63737A" stroke-width="1.8" stroke-miterlimit="10" stroke-linecap="round" stroke-linejoin="round"/>
<path d="M255.942 59.7997L279.442 61.1997" stroke="#63737A" stroke-width="1.8" stroke-miterlimit="10" stroke-linecap="round" stroke-linejoin="round"/>
<path d="M256.942 70.8995L280.442 71.8995" stroke="#63737A" stroke-width="1.8" stroke-miterlimit="10" stroke-linecap="round" stroke-linejoin="round"/>
<path d="M257.342 75.5995L280.842 76.3995" stroke="#63737A" stroke-width="1.8" stroke-miterlimit="10" stroke-linecap="round" stroke-linejoin="round"/>
<path d="M246.143 41.9997L247.342 43.4997L249.042 41.1997" stroke="#6DAFA7" stroke-width="1.8" stroke-miterlimit="10" stroke-linecap="round" stroke-linejoin="round"/>
<path d="M247.442 57.9996L248.643 59.3996L250.442 57.0996" stroke="#6DAFA7" stroke-width="1.8" stroke-miterlimit="10" stroke-linecap="round" stroke-linejoin="round"/>
<path d="M248.743 73.6996L250.042 75.0996L251.743 72.6996" stroke="#6DAFA7" stroke-width="1.8" stroke-miterlimit="10" stroke-linecap="round" stroke-linejoin="round"/>
<path d="M305.342 157.099C305.342 157.099 299.142 169.999 298.642 178.199C298.142 186.399 306.842 219.299 321.042 244.399C321.042 244.399 334.442 239.999 334.442 235.899C334.442 231.799 326.542 183.299 327.042 181.899C327.542 180.499 333.042 170.199 333.042 165.799C333.042 161.499 307.442 152.299 305.342 157.099Z" fill="#F4C2C9"/>
<path d="M333.042 165.799C333.042 161.399 307.542 152.299 305.442 157.099C305.442 157.099 304.642 158.899 303.542 161.499C311.642 167.799 320.342 173.199 330.242 174.999C331.642 171.799 333.042 167.999 333.042 165.799Z" fill="#E26E85"/>
<path d="M331.942 102.299C331.942 102.299 321.942 105.699 314.342 122.899C306.642 140.199 298.642 154.499 298.642 154.499C298.642 154.499 311.142 166.899 327.142 173.199C343.142 179.699 343.742 103.899 331.942 102.299Z" fill="#6DAFA7"/>
<path d="M301.442 149.399C301.442 149.399 318.542 163.399 334.442 169.499" stroke="#E9ECEF" stroke-width="1.8" stroke-miterlimit="10" stroke-linecap="round" stroke-linejoin="round"/>
<path d="M365.342 475.298C365.342 475.298 364.442 496.297 364.642 498.297C364.842 500.397 357.643 504.597 348.743 504.297C339.943 503.997 339.042 501.397 339.042 501.397C339.042 501.397 337.042 478.697 336.842 475.498C336.642 472.298 363.542 470.998 365.342 475.298Z" fill="#F4C2C9"/>
<path d="M364.842 487.397C365.042 481.397 365.342 475.298 365.342 475.298C363.542 470.998 336.642 472.298 336.842 475.498C336.942 476.997 337.442 482.597 337.842 488.197C345.742 492.097 356.142 491.097 364.842 487.397Z" fill="#CCC5B9"/>
<path d="M364.642 497.697C364.642 497.697 365.443 503.597 365.743 509.997C366.043 516.497 367.043 528.097 365.943 530.097C364.743 532.097 358.743 533.797 344.443 534.897C330.143 535.997 316.942 534.997 314.642 533.197C312.342 531.397 313.043 528.697 315.243 526.597C317.443 524.497 326.143 515.197 329.743 511.397C334.443 506.397 337.842 501.297 337.842 500.697C338.142 498.297 338.642 498.297 338.642 498.297C338.642 498.297 339.242 499.797 340.042 499.697C340.842 499.597 341.943 495.097 346.743 496.197C351.643 497.297 353.542 500.597 355.342 500.597C357.142 500.497 362.042 499.897 364.642 497.697Z" fill="#CCC5B9"/>
<path d="M402.842 479.497C402.842 479.497 405.542 501.097 406.042 502.397C406.542 503.697 411.542 507.297 419.342 506.897C427.142 506.497 430.143 504.197 430.443 503.697C430.743 503.197 430.242 478.497 430.042 476.897C429.842 475.297 404.642 475.697 402.842 479.497Z" fill="#F4C2C9"/>
<path d="M430.342 487.997C430.242 482.497 430.043 477.397 429.943 476.697C429.643 475.097 404.642 475.597 402.742 479.397C402.742 479.397 403.342 484.197 404.042 489.397C413.042 491.497 422.042 490.897 430.342 487.997Z" fill="#CCC5B9"/>
<path d="M405.642 500.497C405.442 502.097 405.342 503.597 405.442 505.197C405.542 506.497 405.642 508.297 405.642 510.497C405.742 515.097 406.142 530.997 407.242 533.297C408.342 535.597 420.942 537.497 430.442 537.597C439.942 537.697 446.942 535.197 448.042 532.597C449.142 529.997 448.542 526.197 445.242 521.997C441.942 517.797 434.342 511.297 433.442 508.197C432.542 505.097 431.142 501.497 430.542 500.497C430.542 500.497 429.242 502.297 427.842 502.697C426.542 503.097 424.642 497.697 420.542 497.497C416.442 497.197 414.642 498.897 412.042 502.697C411.942 502.697 408.342 502.997 405.642 500.497Z" fill="#CCC5B9"/>
<path d="M317.942 218.699C317.942 218.699 315.542 229.599 314.342 244.299C313.142 258.999 317.342 350.098 317.942 357.198C318.542 364.298 320.842 404.798 323.442 424.498C325.542 440.698 324.042 473.397 328.942 477.997C333.842 482.597 348.842 485.097 358.142 482.597C367.442 480.097 371.742 475.497 372.842 471.697C373.942 467.898 369.542 438.998 369.842 424.298C370.142 409.598 369.842 366.198 369.342 355.898C369.342 355.898 373.442 303.298 378.342 291.298C383.242 279.299 390.342 235.099 376.742 222.299C362.942 209.499 319.142 216.599 317.942 218.699Z" fill="#CCC5B9"/>
<path d="M339.842 224.499C339.842 224.499 339.742 244.299 340.542 259.099C340.842 264.699 341.342 269.599 342.042 272.499C344.542 282.899 349.942 283.699 354.042 286.099C358.142 288.599 372.842 347.398 378.842 362.698C378.842 362.698 383.442 397.898 387.042 418.898C390.542 439.898 390.042 465.298 392.742 473.997C395.442 482.697 411.242 484.397 418.942 483.697C426.642 482.997 436.942 479.997 436.642 470.997C436.342 461.998 434.842 436.398 433.542 414.598C432.142 392.798 429.742 360.298 429.142 352.698C429.142 352.698 426.142 316.698 424.542 298.198C422.942 279.699 423.842 260.799 421.442 228.899C418.842 196.899 339.742 206.699 339.842 224.499Z" fill="#CCC5B9"/>
<path d="M340.542 259.099C340.842 264.699 341.342 269.599 342.042 272.499C344.542 282.898 349.942 283.698 354.042 286.098C358.142 288.598 372.842 347.398 378.842 362.698" stroke="#63737A" stroke-width="1.8" stroke-miterlimit="10" stroke-linecap="round" stroke-linejoin="round"/>
<path d="M354.042 286.099C354.042 286.099 342.342 280.099 337.142 282.299" stroke="#63737A" stroke-width="1.8" stroke-miterlimit="10" stroke-linecap="round" stroke-linejoin="round"/>
<path d="M336.142 371.798C343.433 371.798 349.342 365.306 349.342 357.298C349.342 349.29 343.433 342.798 336.142 342.798C328.852 342.798 322.942 349.29 322.942 357.298C322.942 365.306 328.852 371.798 336.142 371.798Z" stroke="#63737A" stroke-width="1.8" stroke-miterlimit="10" stroke-linecap="round" stroke-linejoin="round"/>
<path d="M405.142 370.898C412.654 370.898 418.742 364.406 418.742 356.398C418.742 348.39 412.654 341.898 405.142 341.898C397.631 341.898 391.542 348.39 391.542 356.398C391.542 364.406 397.631 370.898 405.142 370.898Z" stroke="#63737A" stroke-width="1.8" stroke-miterlimit="10" stroke-linecap="round" stroke-linejoin="round"/>
<path d="M341.942 489.697C341.942 489.697 341.642 487.597 341.942 486.697" stroke="#63737A" stroke-width="1.8" stroke-miterlimit="10" stroke-linecap="round" stroke-linejoin="round"/>
<path d="M350.242 490.997C350.242 490.997 350.242 487.097 350.242 486.697" stroke="#63737A" stroke-width="1.8" stroke-miterlimit="10" stroke-linecap="round" stroke-linejoin="round"/>
<path d="M360.342 488.997C360.342 488.997 360.442 486.497 360.342 485.397" stroke="#63737A" stroke-width="1.8" stroke-miterlimit="10" stroke-linecap="round" stroke-linejoin="round"/>
<path d="M408.342 490.297C408.342 490.297 407.842 487.597 407.842 486.797" stroke="#63737A" stroke-width="1.8" stroke-miterlimit="10" stroke-linecap="round" stroke-linejoin="round"/>
<path d="M418.342 490.697C418.342 490.697 418.542 487.297 418.342 486.397" stroke="#63737A" stroke-width="1.8" stroke-miterlimit="10" stroke-linecap="round" stroke-linejoin="round"/>
<path d="M426.943 489.097C426.943 489.097 427.143 486.797 426.943 485.697" stroke="#63737A" stroke-width="1.8" stroke-miterlimit="10" stroke-linecap="round" stroke-linejoin="round"/>
<path d="M332.542 509.897C332.542 509.897 340.142 503.797 355.042 512.197" stroke="#22272E" stroke-width="1.8" stroke-miterlimit="10" stroke-linecap="round" stroke-linejoin="round"/>
<path d="M326.842 517.597C326.842 517.597 336.242 510.097 350.242 519.197" stroke="#22272E" stroke-width="1.8" stroke-miterlimit="10" stroke-linecap="round" stroke-linejoin="round"/>
<path d="M435.742 514.297C435.742 514.297 426.642 510.297 414.342 516.797" stroke="#22272E" stroke-width="1.8" stroke-miterlimit="10" stroke-linecap="round" stroke-linejoin="round"/>
<path d="M439.842 521.097C439.842 521.097 429.342 516.497 416.642 524.797" stroke="#22272E" stroke-width="1.8" stroke-miterlimit="10" stroke-linecap="round" stroke-linejoin="round"/>
<path d="M380.342 98.7995C380.342 98.7995 385.343 100.3 395.943 100.5C406.543 100.7 418.642 103.799 423.342 109.699C428.042 115.599 429.542 159.099 428.842 178.799C428.142 198.399 414.042 227.799 414.042 227.799C414.042 227.799 380.342 231.599 352.742 230.299C325.142 228.899 318.542 222.899 316.642 220.999C314.742 219.099 313.642 214.499 314.742 212.499C315.842 210.599 321.242 194.999 323.242 180.099C325.142 165.099 321.042 144.399 322.942 126.099C324.842 107.799 331.942 102.399 331.942 102.399C331.942 102.399 340.842 99.3995 356.242 98.8995C371.542 98.1995 380.342 98.7995 380.342 98.7995Z" fill="#FFE779"/>
<path d="M378.842 151.499C382.432 151.499 385.342 148.589 385.342 144.999C385.342 141.409 382.432 138.499 378.842 138.499C375.253 138.499 372.342 141.409 372.342 144.999C372.342 148.589 375.253 151.499 378.842 151.499Z" fill="#F8AB5D"/>
<path d="M357.042 94.9995C354.342 95.0995 352.242 96.6995 350.342 98.5995C349.142 99.7995 348.042 101.4 347.542 103.499C343.742 121.899 349.542 144.099 356.942 143.899C366.242 143.599 378.742 126.699 388.542 107.499C392.542 99.5995 384.842 94.0995 380.342 94.0995C376.842 93.9995 362.642 94.6995 357.042 94.9995Z" fill="#6DAFA7"/>
<path d="M399.743 56.0997C399.743 56.0997 399.742 64.1997 395.042 72.1996C390.342 80.1996 384.643 84.3996 382.743 87.9995C380.843 91.5995 381.343 82.1996 382.743 77.6996C384.143 73.2996 392.443 49.1997 399.743 56.0997Z" fill="#383D43"/>
<path d="M354.942 86.4995C354.942 86.4995 353.842 96.1995 353.142 99.8994C352.442 103.599 350.842 113.299 363.242 113.899C374.342 114.499 380.342 105.899 382.542 101.699C383.242 100.399 383.542 98.9994 383.442 97.5994C383.142 93.1995 382.542 82.3995 382.842 73.5996C383.242 62.3996 354.942 78.5996 354.942 86.4995Z" fill="#F4C2C9"/>
<path d="M376.943 87.1996C371.043 91.8996 362.342 94.0995 354.142 92.8995C353.842 95.4995 353.442 98.2995 353.142 99.8995C353.042 100.4 352.942 101 352.842 101.7C362.942 102.2 374.443 97.1995 376.943 87.1996Z" fill="#E26E85"/>
<path d="M343.142 50.4998C343.142 50.4998 340.442 54.3998 340.842 57.3997C341.242 60.3997 346.942 70.4997 349.842 70.1997C352.742 69.8997 355.742 57.4997 352.342 53.3998C348.842 49.2998 344.242 48.5998 343.142 50.4998Z" fill="#343A40"/>
<path d="M345.443 56.1997C345.443 56.1997 345.743 63.1996 344.443 71.1996C343.143 79.1996 342.242 91.1995 354.142 94.4995C366.042 97.7995 380.043 93.2995 384.443 76.8996C388.843 60.4997 392.042 43.8997 376.842 39.0998C361.642 34.2998 343.643 40.4998 345.443 56.1997Z" fill="#F4C2C9"/>
<path d="M350.542 64.1997C350.842 65.2997 350.742 66.5997 350.342 67.7997C350.142 68.3997 349.842 68.8997 349.442 69.3997C349.242 69.6997 349.042 69.8997 348.842 70.0997C348.742 70.1997 348.642 70.3997 348.542 70.4997C348.442 70.7997 348.442 71.0997 348.542 71.3997C348.642 71.7997 348.942 72.1997 349.242 72.5997C349.842 73.3996 350.742 74.0997 351.642 74.6996C350.442 74.7996 349.242 74.3996 348.242 73.5996C347.742 73.1997 347.242 72.6997 346.942 71.9997C346.642 71.2997 346.542 70.3997 346.942 69.6997C347.142 69.2997 347.342 68.9997 347.642 68.7997C347.842 68.5997 348.042 68.4997 348.142 68.2997C348.442 67.8997 348.842 67.4997 349.042 67.0997C349.642 66.1997 350.142 65.2997 350.542 64.1997Z" fill="#343A40"/>
<path d="M383.842 68.7997C383.842 68.7997 382.342 66.4997 381.642 61.8997C381.042 57.2998 376.142 57.5998 373.842 49.0998C371.542 40.5999 365.942 51.0998 357.042 54.8998C348.142 58.6998 341.142 52.5998 337.542 45.7998C334.042 39.0999 340.042 32.9999 344.142 30.1999C348.242 27.3999 352.542 31.8999 360.542 29.8999C368.542 27.8999 381.442 25.3999 387.642 34.3999C393.842 43.3998 400.242 45.5998 399.842 55.3998C399.342 65.1997 387.942 76.0997 387.242 76.1997C386.442 76.3997 383.842 68.7997 383.842 68.7997Z" fill="#343A40"/>
<path d="M362.742 59.3997C362.442 58.5997 362.142 57.0997 363.242 56.2997C364.342 55.4997 366.842 55.7997 369.242 57.2997C371.342 58.5997 371.942 60.6997 370.542 60.4997C369.142 60.2997 368.042 59.6997 366.342 59.5997C364.542 59.4997 363.042 60.0997 362.742 59.3997Z" fill="#343A40"/>
<path d="M350.742 58.2997C350.942 57.5997 351.142 56.2997 350.442 55.3997C349.842 54.5997 348.242 54.6997 346.742 55.7997C345.442 56.7997 345.042 58.6997 345.942 58.5997C346.842 58.4997 347.442 58.0997 348.542 58.1997C349.642 58.2997 350.542 58.8997 350.742 58.2997Z" fill="#343A40"/>
<path d="M343.842 76.2996C343.842 76.2996 343.743 77.4996 345.443 77.7996C347.143 77.9996 347.342 75.4996 350.242 75.0996C352.042 74.8997 358.343 75.3996 360.943 77.7996C363.543 80.1996 367.142 82.9996 372.342 81.3996C377.542 79.7996 380.642 72.4997 381.642 61.8997C382.542 52.1998 386.142 61.5997 386.142 63.8997C386.142 65.4997 384.642 63.1997 382.842 69.6997C382.042 72.5997 382.842 80.7996 379.742 86.7996C377.342 91.3996 370.642 96.0995 362.142 96.6995C353.642 97.2995 346.642 93.7996 344.542 88.1996C342.442 82.7996 343.242 76.6996 343.842 76.2996Z" fill="#343A40"/>
<path d="M347.942 65.7996C348.742 65.8996 349.442 65.2996 349.542 64.4996L349.642 63.6996C349.742 62.8997 349.142 62.1996 348.342 62.0996C347.542 61.9996 346.842 62.5996 346.742 63.3996L346.642 64.1996C346.542 64.9996 347.142 65.6996 347.942 65.7996Z" fill="#343A40"/>
<path d="M363.842 66.7997C364.642 66.8997 365.342 66.2998 365.442 65.4998L365.542 64.6998C365.642 63.8998 365.042 63.1998 364.242 63.0998C363.442 62.9998 362.742 63.5998 362.642 64.3998L362.542 65.1998C362.442 66.0998 363.042 66.7997 363.842 66.7997Z" fill="#343A40"/>
<path d="M382.742 69.6997C382.742 69.6997 385.442 63.6997 390.142 64.3997C394.942 65.1997 392.542 77.7996 383.842 77.6996" fill="#F4C2C9"/>
<path d="M389.842 68.8996C389.542 68.5996 389.242 68.2996 389.042 68.1996C388.742 68.0996 388.842 68.2996 388.642 68.3996C388.642 68.4996 388.442 69.2996 388.342 69.9996C388.242 70.6996 388.042 71.4996 387.642 72.1996C387.442 72.5996 387.242 72.9996 386.842 73.2996C386.442 73.5996 385.942 73.6996 385.542 73.4996C385.942 73.2996 386.042 72.9996 386.142 72.6996C386.242 72.3996 386.242 72.0996 386.342 71.7996C386.442 71.0996 386.442 70.3996 386.642 69.5996C386.742 69.1996 386.843 68.7996 386.943 68.3996C387.043 68.1996 387.142 67.9996 387.242 67.7996C387.342 67.6996 387.342 67.5996 387.542 67.4996C387.642 67.3996 387.843 67.2996 387.943 67.1996C388.143 67.0996 388.442 66.9996 388.842 66.9996C389.242 67.0996 389.442 67.2996 389.642 67.4996C389.942 67.9996 389.942 68.4996 389.842 68.8996Z" fill="#343A40"/>
<path d="M354.943 81.8995C354.943 81.8995 357.642 83.0995 360.342 82.5995" stroke="#F4C2C9" stroke-width="1.8" stroke-miterlimit="10" stroke-linecap="round" stroke-linejoin="round"/>
<path d="M350.115 62.9244C350.593 57.9213 348.306 53.6101 345.007 53.2952C341.708 52.9803 338.647 56.7809 338.169 61.784C337.692 66.7872 339.979 71.0983 343.278 71.4132C346.576 71.7281 349.638 67.9276 350.115 62.9244Z" stroke="#343A40" stroke-width="1.8" stroke-miterlimit="10" stroke-linecap="round" stroke-linejoin="round"/>
<path d="M372.353 64.872C372.831 59.8689 369.786 55.4854 365.553 55.0813C361.319 54.6771 357.5 58.4054 357.022 63.4086C356.545 68.4117 359.589 72.7951 363.823 73.1993C368.056 73.6034 371.875 69.8752 372.353 64.872Z" stroke="#343A40" stroke-width="1.8" stroke-miterlimit="10" stroke-linecap="round" stroke-linejoin="round"/>
<path d="M349.842 64.3997C349.842 64.3997 351.543 61.1997 356.943 64.9997" stroke="#343A40" stroke-width="1.8" stroke-miterlimit="10" stroke-linecap="round" stroke-linejoin="round"/>
<path d="M372.242 64.8998L383.542 67.2998" stroke="#343A40" stroke-width="1.8" stroke-miterlimit="10" stroke-linecap="round" stroke-linejoin="round"/>
<path d="M415.542 175.299L420.842 185.999C420.842 185.999 415.242 193.599 409.242 207.999C403.242 222.399 398.842 240.199 394.742 245.299C394.742 245.299 398.742 254.899 408.542 259.099C408.542 259.099 427.642 231.099 436.342 218.899C445.042 206.699 453.342 191.099 452.742 183.299C451.842 171.799 443.142 154.799 442.342 150.199C441.542 145.599 415.742 161.999 415.542 175.299Z" fill="#F4C2C9"/>
<path d="M442.242 150.199C441.542 145.699 415.742 161.999 415.542 175.299L416.342 176.799C425.442 169.899 435.642 165.199 446.542 161.899C444.442 156.699 442.542 152.199 442.242 150.199Z" fill="#E26E85"/>
<path d="M399.742 234.899C401.142 237.299 405.942 243.699 417.142 246.299C417.542 246.399 417.642 246.799 417.442 247.099L412.342 253.999C412.242 254.199 411.942 254.199 411.742 254.199C399.242 250.399 395.942 244.099 395.442 242.899C395.342 242.799 395.342 242.599 395.442 242.499L398.842 234.999C399.042 234.499 399.542 234.499 399.742 234.899Z" fill="#E9ECEF"/>
<path d="M406.816 247.037C408.194 244.772 407.551 241.866 405.38 240.546C403.21 239.226 400.333 239.992 398.956 242.257C397.578 244.522 398.221 247.428 400.392 248.748C402.563 250.068 405.439 249.302 406.816 247.037Z" fill="#22272E"/>
<path d="M418.443 108.899C420.843 108.499 423.242 109.399 424.742 111.299C427.042 114.199 430.842 119.799 435.542 129.399C443.442 145.499 448.943 156.099 448.943 156.099C448.943 156.099 421.542 170.899 415.542 175.299C415.542 175.299 404.442 156.599 400.842 148.799C397.342 141.399 398.343 112.599 418.443 108.899Z" fill="#6DAFA7"/>
<path d="M412.142 169.499C412.142 169.499 427.142 158.299 445.842 150.099" stroke="#E9ECEF" stroke-width="1.8" stroke-miterlimit="10" stroke-linecap="round" stroke-linejoin="round"/>
<path d="M390.842 238.699C390.842 238.699 395.542 256.199 414.842 262.299" stroke="#63737A" stroke-width="1.8" stroke-miterlimit="10" stroke-linecap="round" stroke-linejoin="round"/>
<path d="M420.842 185.999C420.842 185.999 423.442 182.599 429.042 181.299" stroke="#E26E85" stroke-width="1.8" stroke-miterlimit="10" stroke-linecap="round" stroke-linejoin="round"/>
<path d="M569.043 210.999L480.543 200.099C477.643 199.699 475.643 197.199 475.943 194.299L485.343 106.499C485.743 103.099 488.343 100.399 491.743 99.8995L583.343 87.4996C586.743 86.9996 589.743 89.8995 589.343 93.3995L575.743 205.899C575.343 209.099 572.343 211.399 569.043 210.999Z" fill="#63737A"/>
<path d="M566.043 210.699L477.543 199.699C474.643 199.299 472.643 196.799 472.943 193.899L482.343 106.099C482.743 102.699 485.343 99.9995 488.743 99.4995L580.343 87.0995C583.743 86.5995 586.743 89.4995 586.343 92.9995L572.743 205.499C572.343 208.699 569.343 211.099 566.043 210.699Z" fill="#E9ECEF"/>
<path d="M562.743 129.099L493.443 132.599C492.243 132.699 491.243 131.599 491.443 130.499L493.142 114.999C493.242 114.099 493.942 113.399 494.842 113.299L564.743 106.399C565.943 106.299 567.042 107.299 566.842 108.599L564.542 127.599C564.542 128.299 563.743 128.999 562.743 129.099Z" fill="#6DAFA7"/>
<path d="M511.142 118.699L557.043 115" stroke="#E9ECEF" stroke-width="1.8" stroke-miterlimit="10" stroke-linecap="round" stroke-linejoin="round"/>
<path d="M510.543 124.6L535.243 122.9" stroke="#E9ECEF" stroke-width="1.8" stroke-miterlimit="10" stroke-linecap="round" stroke-linejoin="round"/>
<path d="M503.18 123.575C504.072 121.922 503.691 119.987 502.33 119.253C500.969 118.519 499.143 119.264 498.252 120.916C497.36 122.569 497.741 124.504 499.102 125.238C500.463 125.972 502.289 125.227 503.18 123.575Z" fill="#E9ECEF"/>
<path d="M558.842 160.799L490.342 159.599C489.242 159.599 488.343 158.599 488.443 157.499L490.142 142.099C490.242 141.099 491.042 140.399 492.042 140.399L561.042 138.199C562.242 138.199 563.142 139.199 563.042 140.399L560.842 159.199C560.742 159.999 559.842 160.799 558.842 160.799Z" fill="#F4C2C9"/>
<path d="M508.043 146.899L553.443 146.299" stroke="#E9ECEF" stroke-width="1.8" stroke-miterlimit="10" stroke-linecap="round" stroke-linejoin="round"/>
<path d="M507.342 152.699H531.842" stroke="#E9ECEF" stroke-width="1.8" stroke-miterlimit="10" stroke-linecap="round" stroke-linejoin="round"/>
<path d="M500.194 151.174C501.011 149.483 500.585 147.587 499.242 146.938C497.899 146.289 496.149 147.134 495.332 148.825C494.515 150.516 494.941 152.412 496.284 153.061C497.627 153.709 499.377 152.865 500.194 151.174Z" fill="#E9ECEF"/>
<path d="M555.043 192.199L487.343 186.399C486.243 186.299 485.443 185.299 485.543 184.299L487.243 168.999C487.343 167.999 488.243 167.199 489.243 167.299L557.443 169.799C558.543 169.799 559.443 170.799 559.343 171.999L557.143 190.599C557.043 191.499 556.043 192.199 555.043 192.199Z" fill="#FFE779"/>
<path d="M504.943 174.899L549.743 177.299" stroke="#E9ECEF" stroke-width="1.8" stroke-miterlimit="10" stroke-linecap="round" stroke-linejoin="round"/>
<path d="M504.243 180.599L528.443 182.299" stroke="#E9ECEF" stroke-width="1.8" stroke-miterlimit="10" stroke-linecap="round" stroke-linejoin="round"/>
<path d="M497.357 177.944C498.097 176.218 497.585 174.342 496.214 173.755C494.844 173.168 493.133 174.091 492.394 175.817C491.654 177.543 492.166 179.419 493.537 180.006C494.907 180.593 496.618 179.67 497.357 177.944Z" fill="#E9ECEF"/>
</g>
</svg>
