<?xml version="1.0" encoding="UTF-8" standalone="no"?><!DOCTYPE svg PUBLIC "-//W3C//DTD SVG 1.1//EN" "http://www.w3.org/Graphics/SVG/1.1/DTD/svg11.dtd"><svg width="100%" height="100%" viewBox="0 0 926 1100" version="1.1" xmlns="http://www.w3.org/2000/svg" xmlns:xlink="http://www.w3.org/1999/xlink" xml:space="preserve" xmlns:serif="http://www.serif.com/" style="fill-rule:evenodd;clip-rule:evenodd;stroke-linejoin:round;stroke-miterlimit:2;"><path d="M904.613,1100l-883.78,0c-11.425,-0.012 -20.821,-9.408 -20.833,-20.833l-0,-1058.33c0.012,-11.425 9.408,-20.82 20.833,-20.833l883.78,0c11.42,0.013 20.82,9.408 20.833,20.833l-0,1058.33c-0.013,11.425 -9.413,20.821 -20.833,20.833Zm-883.78,-1091.67c-6.854,0.009 -12.491,5.646 -12.5,12.5l0,1058.33c0.009,6.854 5.646,12.491 12.5,12.5l883.78,-0c6.854,-0.009 12.491,-5.646 12.5,-12.5l-0,-1058.33c-0.009,-6.854 -5.646,-12.491 -12.5,-12.5l-883.78,0Z" style="fill:#a6adbb;fill-rule:nonzero;"/><rect x="139.804" y="225" width="645.833" height="400" style="fill:#7480ff;"/><rect x="139.804" y="775" width="162.5" height="100" style="fill:#2a323c;"/><rect x="623.138" y="775" width="162.5" height="100" style="fill:#2a323c;"/><rect x="381.471" y="775" width="162.5" height="100" style="fill:#2a323c;"/></svg>