<?xml version="1.0" encoding="UTF-8" standalone="no"?>
<!DOCTYPE svg PUBLIC "-//W3C//DTD SVG 1.1//EN" "http://www.w3.org/Graphics/SVG/1.1/DTD/svg11.dtd">
<svg width="100%" height="100%" viewBox="0 0 861 688" version="1.1" xmlns="http://www.w3.org/2000/svg" xmlns:xlink="http://www.w3.org/1999/xlink" xml:space="preserve" xmlns:serif="http://www.serif.com/" style="fill-rule:evenodd;clip-rule:evenodd;stroke-linejoin:round;stroke-miterlimit:2;">
    <g transform="matrix(1,0,0,1,-169.876,-106)">
        <path d="M386.983,492L174.876,492C172.134,491.997 169.879,489.742 169.876,487L169.876,233C169.879,230.258 172.134,228.003 174.876,228L386.983,228C389.724,228.003 391.98,230.258 391.983,233L391.983,487C391.98,489.742 389.724,491.997 386.983,492ZM174.876,230C173.231,230.002 171.878,231.355 171.876,233L171.876,487C171.878,488.645 173.231,489.998 174.876,490L386.983,490C388.628,489.998 389.981,488.645 389.983,487L389.983,233C389.981,231.355 388.628,230.002 386.983,230L174.876,230Z" style="fill:rgb(166,173,187);fill-rule:nonzero;"/>
    </g>
    <rect x="33.553" y="176" width="155" height="96" style="fill:rgb(116,128,255);"/>
    <rect x="33.553" y="308" width="39" height="24" style="fill:rgb(166,173,187);"/>
    <rect x="149.553" y="308" width="39" height="24" style="fill:rgb(166,173,187);"/>
    <rect x="91.553" y="308" width="39" height="24" style="fill:rgb(166,173,187);"/>
    <g transform="matrix(1,0,0,1,-169.876,-106)">
        <path d="M678.983,370L466.876,370C464.134,369.997 461.879,367.742 461.876,365L461.876,111C461.879,108.258 464.134,106.003 466.876,106L678.983,106C681.724,106.003 683.98,108.258 683.983,111L683.983,365C683.98,367.742 681.724,369.997 678.983,370ZM466.876,108C465.231,108.002 463.878,109.355 463.876,111L463.876,365C463.878,366.645 465.231,367.998 466.876,368L678.983,368C680.628,367.998 681.981,366.645 681.983,365L681.983,111C681.981,109.355 680.628,108.002 678.983,108L466.876,108Z" style="fill:rgb(166,173,187);fill-rule:nonzero;"/>
    </g>
    <g transform="matrix(1,0,0,1,-169.876,-106)">
        <path d="M681.516,531L469.41,531C466.668,530.997 464.413,528.742 464.41,526L464.41,451C464.413,448.258 466.668,446.003 469.41,446L681.516,446C684.258,446.003 686.513,448.258 686.516,451L686.516,526C686.513,528.742 684.258,530.997 681.516,531ZM469.41,448C467.765,448.002 466.411,449.355 466.41,451L466.41,526C466.411,527.645 467.765,528.998 469.41,529L681.516,529C683.161,528.998 684.514,527.645 684.516,526L684.516,451C684.514,449.355 683.161,448.002 681.516,448L469.41,448Z" style="fill:rgb(166,173,187);fill-rule:nonzero;"/>
    </g>
    <path d="M480.053,182.5L480.053,182.5C480.053,189.123 474.676,194.5 468.053,194.5L338.053,194.5C331.43,194.5 326.053,189.123 326.053,182.5L326.053,182.5C326.053,175.877 331.43,170.5 338.053,170.5L468.053,170.5C474.676,170.5 480.053,175.877 480.053,182.5Z" style="fill:rgb(166,173,187);"/>
    <path d="M480.053,220.5L480.053,220.5C480.053,227.123 474.676,232.5 468.053,232.5L338.053,232.5C331.43,232.5 326.053,227.123 326.053,220.5L326.053,220.5C326.053,213.877 331.43,208.5 338.053,208.5L468.053,208.5C474.676,208.5 480.053,213.877 480.053,220.5Z" style="fill:rgb(166,173,187);"/>
    <circle cx="403.053" cy="87.5" r="56" style="fill:rgb(116,128,255);"/>
    <path d="M478.087,382.5L478.087,382.5C478.087,389.123 472.71,394.5 466.087,394.5L409.087,394.5C402.464,394.5 397.087,389.123 397.087,382.5L397.087,382.5C397.087,375.877 402.464,370.5 409.087,370.5L466.087,370.5C472.71,370.5 478.087,375.877 478.087,382.5Z" style="fill:rgb(166,173,187);"/>
    <circle cx="355.087" cy="382.5" r="22" style="fill:rgb(116,128,255);"/>
    <g transform="matrix(1,0,0,1,-169.876,-106)">
        <path d="M1029.12,794L648.124,794C647.575,794 647.124,793.549 647.124,793C647.124,792.451 647.575,792 648.124,792L1029.12,792C1029.67,792 1030.12,792.451 1030.12,793C1030.12,793.549 1029.67,794 1029.12,794Z" style="fill:rgb(202,202,202);fill-rule:nonzero;stroke:rgb(166,173,187);stroke-width:1px;"/>
    </g>
    <g transform="matrix(1,0,0,1,-169.876,-106)">
        <path d="M916.255,578.045C915.277,576.646 914.752,574.979 914.752,573.272C914.752,570.032 916.642,567.074 919.582,565.713L916.638,536.258L930.258,543.407L930.966,570.282C931.336,571.242 931.525,572.262 931.525,573.291C931.525,577.885 927.744,581.666 923.15,581.666C920.399,581.666 917.817,580.31 916.255,578.045L916.255,578.045Z" style="fill:rgb(255,182,182);fill-rule:nonzero;"/>
    </g>
    <g transform="matrix(1,0,0,1,-169.876,-106)">
        <path d="M796.97,573.903C795.992,572.504 795.467,570.837 795.467,569.13C795.467,565.89 797.357,562.932 800.297,561.571L797.353,532.116L810.973,539.265L811.681,566.14C812.05,567.1 812.24,568.12 812.24,569.149C812.24,573.743 808.459,577.524 803.865,577.524C801.113,577.524 798.532,576.168 796.97,573.903L796.97,573.903Z" style="fill:rgb(255,182,182);fill-rule:nonzero;"/>
    </g>
    <path d="M717.949,675.734L707.794,675.734L702.962,636.562L717.951,636.562L717.949,675.734Z" style="fill:rgb(255,182,182);fill-rule:nonzero;"/>
    <g transform="matrix(1,0,0,1,-169.876,-106)">
        <path d="M890.415,791.578L857.669,791.577L857.669,791.163C857.67,784.171 863.423,778.418 870.415,778.418L890.416,778.418L890.415,791.578Z" style="fill:rgb(47,46,65);fill-rule:nonzero;"/>
    </g>
    <path d="M642.568,675.734L632.412,675.734L627.581,636.562L642.569,636.562L642.568,675.734Z" style="fill:rgb(255,182,182);fill-rule:nonzero;"/>
    <g transform="matrix(1,0,0,1,-169.876,-106)">
        <path d="M815.034,791.578L782.287,791.577L782.287,791.163C782.288,784.171 788.041,778.418 795.033,778.418L815.034,778.418L815.034,791.578Z" style="fill:rgb(47,46,65);fill-rule:nonzero;"/>
    </g>
    <g transform="matrix(0.877455,-0.479659,0.479659,0.877455,-231.865,353.179)">
        <circle cx="867.651" cy="350.906" r="26.819" style="fill:rgb(255,184,184);"/>
    </g>
    <path d="M638.578,453.984L633.608,461.857L623.668,666.875L644.377,666.047L685.796,492.917L702.363,667.703L720.587,668.532L735.374,465.271L638.578,453.984Z" style="fill:rgb(74,78,105);fill-rule:nonzero;"/>
    <g transform="matrix(1,0,0,1,-169.876,-106)">
        <path d="M916.971,405.079L883.008,386.855L844.903,384.37L811.324,405.079C811.324,405.079 840.761,492.058 808.454,542.588L803.484,566.611L906.202,574.066C906.202,574.066 899.575,466.378 908.687,453.124C917.799,439.87 916.971,405.079 916.971,405.079Z" style="fill:rgb(154,140,152);fill-rule:nonzero;"/>
    </g>
    <g transform="matrix(1,0,0,1,-169.876,-106)">
        <path d="M905.25,409.592L916.971,405.079C916.971,405.079 937.68,423.303 936.852,467.207C936.023,511.11 931.549,559.984 931.549,559.984L916.143,562.469L907.859,491.229L896.262,429.102L905.25,409.592Z" style="fill:rgb(154,140,152);fill-rule:nonzero;"/>
    </g>
    <g transform="matrix(1,0,0,1,-169.876,-106)">
        <path d="M823.489,409.592L811.768,405.079C811.768,405.079 791.059,423.303 791.887,467.207C792.715,511.11 797.19,559.984 797.19,559.984L812.596,562.469L820.88,491.229L832.477,429.102L823.489,409.592Z" style="fill:rgb(154,140,152);fill-rule:nonzero;"/>
    </g>
    <g transform="matrix(1,0,0,1,-169.876,-106)">
        <path d="M887.039,323.849C882.29,319.191 875.756,316.799 869.122,317.292C863.35,317.758 862.974,317.898 857.789,320.476C854.558,322.005 851.42,323.722 848.39,325.617C848.361,324.386 843.246,319.673 842.418,320.585C841.59,321.498 844.552,327.427 843.891,328.466C843.229,329.505 837.244,325.789 836.619,324.727C841.242,331.102 847.346,343.706 845.881,351.444C847.345,349.792 849.449,348.844 851.656,348.844C855.71,348.844 859.108,352.039 859.358,356.085C859.684,361.376 854.781,367.175 857.987,371.396C859.821,373.811 863.315,374.012 866.347,373.998L888.782,371.497C893.602,363.815 896.607,357.723 897.918,348.75C899.23,339.777 893.471,330.242 887.039,323.849Z" style="fill:rgb(47,62,70);fill-rule:nonzero;"/>
    </g>
</svg>
