<?xml version="1.0" encoding="UTF-8" standalone="no"?><!DOCTYPE svg PUBLIC "-//W3C//DTD SVG 1.1//EN" "http://www.w3.org/Graphics/SVG/1.1/DTD/svg11.dtd"><svg width="100%" height="100%" viewBox="0 0 926 1100" version="1.1" xmlns="http://www.w3.org/2000/svg" xmlns:xlink="http://www.w3.org/1999/xlink" xml:space="preserve" xmlns:serif="http://www.serif.com/" style="fill-rule:evenodd;clip-rule:evenodd;stroke-linejoin:round;stroke-miterlimit:2;"><path d="M904.612,1100l-883.779,0c-11.425,-0.012 -20.82,-9.408 -20.833,-20.833l-0,-1058.33c0.013,-11.425 9.408,-20.82 20.833,-20.833l883.779,0c11.421,0.013 20.821,9.408 20.834,20.833l-0,1058.33c-0.013,11.425 -9.413,20.821 -20.834,20.833Zm-883.779,-1091.67c-6.854,0.009 -12.491,5.646 -12.5,12.5l0,1058.33c0.009,6.854 5.646,12.491 12.5,12.5l883.779,-0c6.855,-0.009 12.492,-5.646 12.5,-12.5l0,-1058.33c-0.008,-6.854 -5.645,-12.491 -12.5,-12.5l-883.779,0Z" style="fill:#a6adbb;fill-rule:nonzero;"/><path d="M783.554,760.417c0,27.596 -22.404,50 -50,50l-541.666,-0c-27.596,-0 -50,-22.404 -50,-50c-0,-27.596 22.404,-50 50,-50l541.666,-0c27.596,-0 50,22.404 50,50Z" style="fill:#2a323c;"/><path d="M783.554,918.75c0,27.596 -22.404,50 -50,50l-541.666,0c-27.596,0 -50,-22.404 -50,-50c-0,-27.596 22.404,-50 50,-50l541.666,0c27.596,0 50,22.404 50,50Z" style="fill:#2a323c;"/><circle cx="462.721" cy="364.583" r="233.333" style="fill:#7480ff;"/></svg>