<?xml version="1.0" encoding="UTF-8" standalone="no"?><!DOCTYPE svg PUBLIC "-//W3C//DTD SVG 1.1//EN" "http://www.w3.org/Graphics/SVG/1.1/DTD/svg11.dtd"><svg width="100%" height="100%" viewBox="0 0 926 355" version="1.1" xmlns="http://www.w3.org/2000/svg" xmlns:xlink="http://www.w3.org/1999/xlink" xml:space="preserve" xmlns:serif="http://www.serif.com/" style="fill-rule:evenodd;clip-rule:evenodd;stroke-linejoin:round;stroke-miterlimit:2;"><path d="M904.61,354.167l-883.777,-0c-11.424,-0.013 -20.82,-9.41 -20.833,-20.834l0,-312.5c0.013,-11.424 9.409,-20.82 20.833,-20.833l883.777,-0c11.424,0.013 20.82,9.409 20.834,20.833l-0,312.5c-0.014,11.424 -9.41,20.821 -20.834,20.834Zm-883.777,-345.834c-6.854,0.008 -12.492,5.646 -12.5,12.5l0,312.5c0.008,6.855 5.646,12.493 12.5,12.5l883.777,0c6.855,-0.007 12.493,-5.645 12.5,-12.5l0,-312.5c-0.007,-6.854 -5.645,-12.492 -12.5,-12.5l-883.777,0Z" style="fill:#cacaca;fill-rule:nonzero;"/><path d="M764.805,177.083l0,0c0,27.596 -22.404,50 -50,50l-237.5,0c-27.596,0 -50,-22.404 -50,-50l0,0c0,-27.595 22.404,-50 50,-50l237.5,0c27.596,0 50,22.405 50,50Z" style="fill:#e4e4e4;"/><circle cx="252.305" cy="177.083" r="91.667" style="fill:#6c63ff;"/></svg>