<?xml version="1.0" encoding="UTF-8" standalone="no"?><!DOCTYPE svg PUBLIC "-//W3C//DTD SVG 1.1//EN" "http://www.w3.org/Graphics/SVG/1.1/DTD/svg11.dtd"><svg width="100%" height="100%" viewBox="0 0 926 355" version="1.1" xmlns="http://www.w3.org/2000/svg" xmlns:xlink="http://www.w3.org/1999/xlink" xml:space="preserve" xmlns:serif="http://www.serif.com/" style="fill-rule:evenodd;clip-rule:evenodd;stroke-linejoin:round;stroke-miterlimit:2;"><path d="M904.608,354.167l-883.775,-0c-11.425,-0.013 -20.821,-9.409 -20.833,-20.834l-0,-312.5c0.012,-11.425 9.408,-20.821 20.833,-20.833l883.775,-0c11.425,0.012 20.821,9.408 20.834,20.833l-0,312.5c-0.013,11.425 -9.409,20.821 -20.834,20.834Zm-883.775,-345.834c-6.854,0.009 -12.496,5.646 -12.5,12.5l0,312.5c0.004,6.854 5.646,12.492 12.5,12.5l883.775,0c6.854,-0.008 12.492,-5.646 12.5,-12.5l0,-312.5c-0.008,-6.854 -5.646,-12.491 -12.5,-12.5l-883.775,0Z" style="fill:#a6adbb;fill-rule:nonzero;"/><path d="M764.804,177.083c0,27.596 -22.404,50 -50,50l-237.5,0c-27.596,0 -50,-22.404 -50,-50c0,-27.595 22.404,-50 50,-50l237.5,0c27.596,0 50,22.405 50,50Z" style="fill:#2a323c;"/><circle cx="252.304" cy="177.083" r="91.667" style="fill:#7480ff;"/></svg>