<?xml version="1.0" encoding="UTF-8" standalone="no"?><!DOCTYPE svg PUBLIC "-//W3C//DTD SVG 1.1//EN" "http://www.w3.org/Graphics/SVG/1.1/DTD/svg11.dtd"><svg width="100%" height="100%" viewBox="0 0 645 1977" version="1.1" xmlns="http://www.w3.org/2000/svg" xmlns:xlink="http://www.w3.org/1999/xlink" xml:space="preserve" xmlns:serif="http://www.serif.com/" style="fill-rule:evenodd;clip-rule:evenodd;stroke-linejoin:round;stroke-miterlimit:2;"><g id="man"><path d="M558.199,1086.74c-4.076,-5.83 -6.263,-12.774 -6.263,-19.888c0,-13.499 7.876,-25.824 20.125,-31.495l-12.268,-122.729l56.752,29.788l2.949,111.979c1.54,4 2.33,8.25 2.33,12.537c-0,19.143 -15.753,34.895 -34.896,34.895c-11.464,0 -22.221,-5.649 -28.729,-15.087l0,-0Z" style="fill:#ffb6b6;fill-rule:nonzero;"/><path d="M61.177,1069.48c-4.076,-5.83 -6.263,-12.774 -6.263,-19.887c0,-13.499 7.876,-25.824 20.125,-31.496l-12.268,-122.729l56.752,29.788l2.949,111.979c1.54,4 2.33,8.25 2.33,12.537c-0,19.143 -15.753,34.896 -34.896,34.896c-11.464,-0 -22.221,-5.65 -28.729,-15.088l0,0Z" style="fill:#ffb6b6;fill-rule:nonzero;"/><path d="M439.74,1935.44l-42.313,0l-20.133,-163.217l62.454,0l-0.008,163.217Z" style="fill:#ffb6b6;fill-rule:nonzero;"/><path d="M450.532,1976.46l-136.442,-0.005l0,-1.725c0.002,-29.133 23.975,-53.105 53.107,-53.107l83.338,0.004l-0.003,54.833Z" style="fill:#2f2e41;fill-rule:nonzero;"/><path d="M125.652,1935.44l-42.316,0l-20.129,-163.217l62.45,0l-0.005,163.217Z" style="fill:#ffb6b6;fill-rule:nonzero;"/><path d="M136.442,1976.46l-136.442,-0.005l0,-1.725c0.002,-29.133 23.974,-53.105 53.107,-53.107l83.338,0.004l-0.003,54.833Z" style="fill:#2f2e41;fill-rule:nonzero;"/><path d="M302.081,42.271c54.117,-29.582 122.07,-9.664 151.653,44.453c29.583,54.116 9.664,122.07 -44.452,151.652c-54.117,29.583 -122.07,9.665 -151.653,-44.452c-29.583,-54.117 -9.664,-122.07 44.452,-151.653Z" style="fill:#ffb8b8;"/><path d="M109.027,1011.48l-20.708,32.804l-41.417,854.242l86.288,-3.45l172.579,-721.375l69.029,728.275l75.934,3.454l61.612,-846.921l-403.317,-47.029Z" style="fill:#4a4e69;fill-rule:nonzero;"/><path d="M561.181,366.045l-141.513,-75.934l-158.771,-10.355l-139.91,86.289c0,-0 122.652,362.412 -11.958,572.956l-20.709,100.094l427.991,31.064c0,0 -27.612,-448.7 10.355,-503.925c37.967,-55.224 34.515,-200.189 34.515,-200.189Z" style="fill:#9a8c98;fill-rule:nonzero;"/><path d="M512.343,384.852l48.838,-18.807c0,-0 86.289,75.934 82.837,258.865c-3.451,182.932 -22.095,386.573 -22.095,386.573l-64.193,10.355l-34.516,-296.833l-48.321,-258.866l37.45,-81.287Z" style="fill:#9a8c98;fill-rule:nonzero;"/><path d="M171.673,384.852l-48.838,-18.807c0,-0 -86.288,75.934 -82.837,258.865c3.452,182.932 22.096,386.573 22.096,386.573l64.193,10.355l34.515,-296.833l48.322,-258.866l-37.451,-81.287Z" style="fill:#9a8c98;fill-rule:nonzero;"/><path d="M436.464,27.588c-19.785,-19.411 -47.011,-29.376 -74.651,-27.323c-24.052,1.943 -25.617,2.525 -47.223,13.27c-13.462,6.369 -26.539,13.522 -39.164,21.421c-0.118,-5.133 -21.434,-24.77 -24.883,-20.968c-3.449,3.802 8.895,28.505 6.137,32.836c-2.757,4.33 -27.693,-11.155 -30.298,-15.579c19.261,26.565 44.695,79.079 38.592,111.319c6.099,-6.883 14.867,-10.829 24.063,-10.829c16.891,-0 31.049,13.311 32.089,30.17c1.36,22.043 -19.068,46.209 -5.71,63.796c7.641,10.062 22.197,10.898 34.832,10.839l93.478,-10.421c20.084,-32.007 32.604,-57.391 38.07,-94.779c5.465,-37.388 -18.532,-77.115 -45.332,-103.752Z" style="fill:#2f3e46;fill-rule:nonzero;"/></g></svg>