<?xml version="1.0" encoding="UTF-8" standalone="no"?><!DOCTYPE svg PUBLIC "-//W3C//DTD SVG 1.1//EN" "http://www.w3.org/Graphics/SVG/1.1/DTD/svg11.dtd"><svg width="100%" height="100%" viewBox="0 0 926 1100" version="1.1" xmlns="http://www.w3.org/2000/svg" xmlns:xlink="http://www.w3.org/1999/xlink" xml:space="preserve" xmlns:serif="http://www.serif.com/" style="fill-rule:evenodd;clip-rule:evenodd;stroke-linejoin:round;stroke-miterlimit:2;"><path d="M904.611,1100l-883.778,0c-11.423,-0.013 -20.82,-9.41 -20.833,-20.833l0,-1058.33c0.013,-11.423 9.41,-20.82 20.833,-20.833l883.778,0c11.424,0.013 20.82,9.409 20.833,20.833l0,1058.33c-0.013,11.424 -9.409,20.82 -20.833,20.833Zm-883.778,-1091.67c-6.854,0.008 -12.492,5.646 -12.5,12.5l0,1058.33c0.008,6.854 5.646,12.492 12.5,12.5l883.778,-0c6.855,-0.008 12.493,-5.646 12.5,-12.5l0,-1058.33c-0.007,-6.854 -5.645,-12.492 -12.5,-12.5l-883.778,0Z" style="fill:#cacaca;fill-rule:nonzero;"/><rect x="139.806" y="225" width="645.833" height="400" style="fill:#6c63ff;"/><rect x="139.806" y="775" width="162.5" height="100" style="fill:#e4e4e4;"/><rect x="623.139" y="775" width="162.5" height="100" style="fill:#e4e4e4;"/><rect x="381.472" y="775" width="162.5" height="100" style="fill:#e4e4e4;"/></svg>